<?xml version="1.0" encoding="UTF-8" standalone="no"?>
<!DOCTYPE svg PUBLIC "-//W3C//DTD SVG 1.1//EN" "http://www.w3.org/Graphics/SVG/1.1/DTD/svg11.dtd">
<svg version="1.1" xmlns="http://www.w3.org/2000/svg" xmlns:xlink="http://www.w3.org/1999/xlink" preserveAspectRatio="xMidYMid meet" viewBox="0 0 640 640" width="640" height="640"><defs><path d="M504.51 238.66C504.51 334.86 423.25 412.96 323.17 412.96C223.09 412.96 141.83 334.86 141.83 238.66C141.83 142.47 223.09 64.37 323.17 64.37C423.25 64.37 504.51 142.47 504.51 238.66Z" id="g3huqnGQMd"></path><path d="M442.78 235.14C442.78 299.21 390.44 351.23 325.98 351.23C261.53 351.23 209.19 299.21 209.19 235.14C209.19 171.07 261.53 119.06 325.98 119.06C390.44 119.06 442.78 171.07 442.78 235.14Z" id="hb9vlMUCe"></path><path d="M418.2 412.96L233.77 412.96L233.77 346.08L418.2 346.08L418.2 412.96Z" id="a1fcHt68HC"></path><path d="M252.19 428L197.33 382.77L255.99 311.62L310.85 356.85L252.19 428Z" id="bGxGqVRsT"></path><path d="M442.78 375.72L384.28 416.13L331.87 340.25L390.37 299.85L442.78 375.72Z" id="abt3ivvyD"></path><path d="M290.44 118.01L361.53 118.01L361.53 346.08L290.44 346.08L290.44 118.01Z" id="aglwWZTBi"></path></defs><g><g><g><use xlink:href="#g3huqnGQMd" opacity="1" fill="#0096ff" fill-opacity="1"></use></g><g><use xlink:href="#hb9vlMUCe" opacity="1" fill="#ffffff" fill-opacity="1"></use></g><g><use xlink:href="#a1fcHt68HC" opacity="1" fill="#ffffff" fill-opacity="1"></use></g><g><use xlink:href="#bGxGqVRsT" opacity="1" fill="#ffffff" fill-opacity="1"></use></g><g><use xlink:href="#abt3ivvyD" opacity="1" fill="#ffffff" fill-opacity="1"></use></g><g><use xlink:href="#aglwWZTBi" opacity="1" fill="#0096ff" fill-opacity="1"></use></g></g></g></svg>